<svg xmlns="http://www.w3.org/2000/svg" viewBox="0 0 532 435"><defs><style>.cls-1{isolation:isolate;}.cls-2{fill:#7979d2;}.cls-2,.cls-20,.cls-3{opacity:0.27;}.cls-3{fill:#9f9fdf;}.cls-4{fill:#66c;}.cls-14,.cls-19,.cls-5,.cls-7{fill:none;}.cls-5{stroke:#3939ac;}.cls-5,.cls-8{stroke-miterlimit:10;}.cls-6{fill:#6a26a8;}.cls-7{stroke:#fff;}.cls-14,.cls-18,.cls-19,.cls-7{stroke-linecap:round;stroke-linejoin:round;}.cls-13,.cls-8{fill:#faad3b;}.cls-14,.cls-8{stroke:#6a26a8;}.cls-9{opacity:0.75;mix-blend-mode:multiply;}.cls-10{fill:#f5e073;}.cls-11{fill:#cc6;}.cls-12{fill:#e3c940;}.cls-15{fill:#e8a137;}.cls-16,.cls-20{fill:#7229b5;}.cls-17{fill:#ededed;}.cls-18{fill:#fff;}.cls-18,.cls-19{stroke:#66c;}.cls-21{fill:#bdbd5e;}.cls-22{fill:#4040bf;}</style></defs><title>LogoMesa de trabajo 1</title><g class="cls-1"><g id="OBJECTS"><path class="cls-2" d="M44.86,400.16c3.06,2.28,8.43,3.92,13.73,5.48H499.43a16.94,16.94,0,0,0,1.94-1.36c3.86-3.22,5.9-8.08,7.63-12.8,8.37-22.78,12.9-47.34,10-71.43s-13.81-47.67-32.39-63.28c-9.48-8-20.72-13.75-29.61-22.36-27.3-26.46-27.68-74.43-59-96-14.44-9.92-32.92-12-50.4-10.89-16.32,1.08-32.72,4.86-46.85,13.11-14.75,8.61-26.32,21.62-38.59,33.52-24.57,23.85-54.42,44.58-88.44,48.54-21.64,2.53-43.55-1.9-65.29-.57a124.47,124.47,0,0,0-66.1,24.09c-12.24,9.07-23,20.77-28.31,35-7.86,21.12-2.9,44.81,4.69,66C23.91,361.94,32.1,390.65,44.86,400.16Z"/><path class="cls-3" d="M488.55,340c-11.59,21.74-23.27,43.44-34.87,65.18-1.56,2.92-3.22,6-6,7.83-3.54,2.4-8.14,2.37-12.42,2.25q-34.79-1-69.52-1.29l-160.2-1.47-71.88-.65c-15.67-.14-31.26.46-46.9.5-8,0-16.39-1.5-22.27-6.85-4.89-4.45-7.34-10.92-9.47-17.19A399.78,399.78,0,0,1,34.6,283.83c-1.82-30.49,5-61.28,29.38-81.8,9.09-7.64,19.89-13.19,28.42-21.46,26.2-25.4,26.57-71.45,56.65-92.12,13.85-9.53,31.6-11.57,48.37-10.46,15.68,1,31.41,4.66,45,12.58,14.16,8.27,25.27,20.76,37,32.18,23.59,22.9,52.25,42.79,84.91,46.6,20.77,2.42,41.79-1.82,62.67-.55a119.54,119.54,0,0,1,63.45,23.13c11.75,8.7,22.08,19.94,27.18,33.64,11.14,29.93-1,61.34-15.07,88Q495.61,326.81,488.55,340Z"/><path class="cls-4" d="M401.88,347s17.48,9.85,17.19,3.43c-.26-5.75-13.85-4-16.68-3.52Z"/><path class="cls-4" d="M402.05,346.83s9.86-17.48,3.44-17.19S402.05,346.83,402.05,346.83Z"/><path class="cls-4" d="M391,354.72s17.48,9.86,17.19,3.43S391,354.72,391,354.72Z"/><path class="cls-4" d="M390.91,354.75s9.85-17.48,3.43-17.19S390.91,354.75,390.91,354.75Z"/><path class="cls-4" d="M382.21,362.39s15.34,8.64,15.08,3S382.21,362.39,382.21,362.39Z"/><path class="cls-4" d="M382.27,362.53s8.65-15.34,3-15.08S382.27,362.53,382.27,362.53Z"/><path class="cls-4" d="M374.48,370.74s15.29,6.19,14.37,1S374.48,370.74,374.48,370.74Z"/><path class="cls-4" d="M374.72,371s6.18-15.3,1-14.38S374.72,371,374.72,371Z"/><path class="cls-4" d="M367.83,379.8s16.37,2,14.14-2.77S367.83,379.8,367.83,379.8Z"/><path class="cls-4" d="M368,379.78s2-16.37-2.77-14.14S368,379.78,368,379.78Z"/><path class="cls-4" d="M362.61,388.57s14.2,1.75,12.27-2.4S362.61,388.57,362.61,388.57Z"/><path class="cls-4" d="M363,388.65s1.76-14.2-2.4-12.26S363,388.65,363,388.65Z"/><path class="cls-4" d="M359.13,395.62s12.12,1.5,10.47-2.05S359.13,395.62,359.13,395.62Z"/><path class="cls-4" d="M359.5,395.74s1.5-12.12-2.05-10.47S359.5,395.74,359.5,395.74Z"/><path class="cls-4" d="M401.1,347.57s19.23-7.87,17.2-11.43S401.1,347.57,401.1,347.57Z"/><path class="cls-5" d="M404.91,345.13s-42.31,22-51.12,69.48"/><path class="cls-4" d="M96.13,296.45s-34.69.37-28.9-9.12c5.19-8.49,24.27,5.55,28.2,8.57Z"/><path class="cls-4" d="M96.05,296s-.37-34.69,9.11-28.9S96.05,296,96.05,296Z"/><path class="cls-4" d="M106.28,317.18s-34.69.37-28.91-9.11S106.28,317.18,106.28,317.18Z"/><path class="cls-4" d="M106.33,317.27s-.37-34.69,9.12-28.9S106.33,317.27,106.33,317.27Z"/><path class="cls-4" d="M113.14,336.08s-30.43.33-25.36-8S113.14,336.08,113.14,336.08Z"/><path class="cls-4" d="M112.93,336.25s-.32-30.43,8-25.35S112.93,336.25,112.93,336.25Z"/><path class="cls-4" d="M117.9,355.18s-28.32-3.37-22.6-10.49S117.9,355.18,117.9,355.18Z"/><path class="cls-4" d="M117.35,355.31s3.37-28.32,10.5-22.59S117.35,355.31,117.35,355.31Z"/><path class="cls-4" d="M96.87,297.9S74.29,270,80.34,266.26,96.87,297.9,96.87,297.9Z"/><path class="cls-5" d="M93.13,291s28,42,27.64,98.17"/><path class="cls-4" d="M388.37,189.91s20.13,28.26,24.39,18c3.81-9.2-18.78-16.35-23.53-17.74Z"/><path class="cls-4" d="M388.8,189.71s28.25-20.13,18-24.39S388.8,189.71,388.8,189.71Z"/><path class="cls-4" d="M365.64,193.93s20.14,28.25,24.39,18S365.64,193.93,365.64,193.93Z"/><path class="cls-4" d="M365.54,193.94s28.25-20.14,18-24.39S365.54,193.94,365.54,193.94Z"/><path class="cls-4" d="M346.32,199.52S364,224.3,367.72,215.3,346.32,199.52,346.32,199.52Z"/><path class="cls-4" d="M346.31,199.78s24.79-17.66,15.78-21.4S346.31,199.78,346.31,199.78Z"/><path class="cls-4" d="M328.09,206.92s19.4,20.9,21.78,12.08S328.09,206.92,328.09,206.92Z"/><path class="cls-4" d="M328.3,207.44s20.9-19.41,12.08-21.79S328.3,207.44,328.3,207.44Z"/><path class="cls-4" d="M311,216.23s24.15,15.17,24.17,6S311,216.23,311,216.23Z"/><path class="cls-4" d="M311.37,216.35s15.18-24.15,6-24.17S311.37,216.35,311.37,216.35Z"/><path class="cls-4" d="M296.44,226.14s20.93,13.15,20.95,5.23S296.44,226.14,296.44,226.14Z"/><path class="cls-4" d="M296.94,226.52s13.16-20.94,5.24-21S296.94,226.52,296.94,226.52Z"/><path class="cls-4" d="M285.81,234.62s17.88,11.24,17.9,4.47S285.81,234.62,285.81,234.62Z"/><path class="cls-4" d="M286.3,235.08s11.24-17.88,4.48-17.9S286.3,235.08,286.3,235.08Z"/><path class="cls-5" d="M394.51,189.15s-82.4,3.48-131,71.28"/><path class="cls-4" d="M386.76,190.17s35.87,1.8,35.32-5.28S386.76,190.17,386.76,190.17Z"/><path class="cls-4" d="M176.81,276.93c-19.42,0-39.14-7.05-55.52-19.85-13.43-10.5-23.63-26.47-33.49-41.92C78.66,200.84,69.21,186,57.22,175.63c-3.49-3-7.69-6.13-12.41-6.24a.5.5,0,0,1-.1-1C62.83,164.07,78.57,162,92.83,162c24.36,0,44.9,6.07,62.79,18.56,18.28,12.75,33.3,32.32,43.44,56.58.34.82,3.11,8.86,5.63,16.76,5.12,16,4.5,16.27,3.9,16.53a79.93,79.93,0,0,1-31.78,6.54Z"/><path class="cls-6" d="M92.83,162.46c21.79,0,43.09,4.92,62.5,18.47,18.19,12.68,33.2,32.28,43.27,56.36.67,1.61,11,32.09,9.79,32.64a79.43,79.43,0,0,1-31.58,6.5c-19.6,0-39-7.08-55.22-19.75-25.77-20.14-39-59.73-64-81.42-3.83-3.32-8-6.26-12.73-6.37,15.91-3.81,32.09-6.43,48-6.43m0-1c-14.3,0-30.08,2.11-48.24,6.46a1,1,0,0,0-.76,1.07,1,1,0,0,0,1,.9c4.56.11,8.67,3.16,12.09,6.12,11.94,10.36,21.37,25.13,30.49,39.42,9.88,15.48,20.1,31.49,33.6,42,16.47,12.87,36.29,20,55.83,20a80.41,80.41,0,0,0,32-6.58c1-.42,1-1.25-.34-6.29-.73-2.68-1.83-6.33-3.28-10.85-2.53-7.91-5.3-16-5.65-16.8-10.18-24.35-25.26-44-43.61-56.8-18-12.55-38.62-18.65-63.08-18.65Z"/><path class="cls-7" d="M193.46,263.32S147.15,183.6,64,172.65"/><polyline class="cls-7" points="118.23 170.29 126.66 195.54 84.85 197.32"/><polyline class="cls-7" points="150.23 191.28 158.45 220.47 123.3 222.31"/><polyline class="cls-7" points="178.72 218.14 183.22 248.24 147.62 244.99"/><polygon class="cls-8" points="218.87 262.28 213.14 276.83 175.31 372.93 171.38 358.69 167.19 314.82 183.36 267.02 218.87 262.28"/><g class="cls-9"><polygon class="cls-10" points="213.14 276.83 175.31 372.93 171.38 358.69 209.15 275.99 213.14 276.83"/></g><polygon class="cls-8" points="348.06 331.87 343.06 357.01 339.9 372.93 302.07 276.83 296.33 262.28 331.84 267.02 348.06 331.87"/><g class="cls-9"><polygon class="cls-10" points="343.06 357.01 339.9 372.93 302.07 276.83 306.06 275.99 343.06 357.01"/></g><path class="cls-11" d="M214.88,331.86c0-.81,0-1.62,0-2.42l0-1.28,0-.59c0-.43,0-.86-.06-1.28v-.12c0-.89-.09-1.79-.13-2.68-.12-1.66-.25-3.33-.4-5l0-.26a4.73,4.73,0,0,1,0-.53l0-1.11,0-.61c0-.42,0-.84-.06-1.26l-.15-2.79c-.11-1.67-.24-3.33-.39-5l-.12-1.43-.19-1.78c0-.44-.09-.89-.14-1.32l-.07-.67c-.06-.58-.13-1.15-.2-1.72l-.08-.58-.18-1.48c-.06-.49-.12-1-.19-1.43l0-.2c-.06-.42-.12-.84-.17-1.25l-.28-1.91c0-.29-.08-.59-.14-.88-.07-.47-.14-.92-.21-1.36-.22-1.36-.44-2.68-.66-4-.06-.37-.11-.71-.18-1.06q-.21-1.19-.42-2.31l-.12-.64-.33-1.66c-.24-1.21-.47-2.36-.7-3.45-13.18-1.26-27.79-7.94-27.94-8l-.45-.2L198.88,228c4.07-6.5,20.17-11.51,33-14.58,6.18-1.47,11.16-2.39,12.52-2.63l0-.08h.35l13.17,1.2,14.1-1.25v.15c4.25.76,39.12,7.28,45.28,17.11l18.26,41.7-.44.2c-.16.07-15.26,7-28.61,8.08-5.7,21.9-5.37,52.31-5.36,52.61v.5l-13,.2-18.93.3-22.06.34-2.62,0-29.61.46Z"/><path class="cls-6" d="M271.52,211.24v0c.13,0,38.92,6.69,45.36,17l18,41.18s-15.29,7-28.79,8.06c-5.88,22.25-5.47,53.09-5.47,53.09l-12.56.19-18.93.3-22.06.34-2.61,0-11.52.18-17.59.27c0-.81,0-1.63,0-2.44,0-.43,0-.86,0-1.27,0-.64-.05-1.27-.09-1.89-.05-.93-.1-1.86-.14-2.79-.12-1.68-.25-3.35-.4-5,0-.26,0-.51-.06-.77s0-.75,0-1.1c0-.64-.05-1.26-.09-1.89l-.15-2.79c-.11-1.68-.24-3.34-.39-5l-.12-1.43c-.06-.54-.11-1.08-.17-1.62s-.1-1-.16-1.5c-.09-.81-.17-1.6-.27-2.39,0-.2,0-.39-.08-.59l-.18-1.47c-.06-.49-.12-1-.19-1.44s-.14-1-.2-1.44l-.21-1.42c-.07-.46-.13-.93-.21-1.39s-.14-.92-.22-1.37c-.21-1.35-.43-2.67-.65-4-.06-.37-.12-.72-.19-1.08-.17-1-.36-2-.54-2.94-.11-.57-.22-1.12-.33-1.67-.26-1.34-.52-2.61-.77-3.81-13.35-1.18-28.15-8-28.15-8l18-41.18c4-6.4,20.66-11.42,32.62-14.29,7.18-1.71,12.68-2.66,12.73-2.67v0l.3,0,12.88,1.17,13.64-1.2m1-1.07-1.09.07-13.55,1.19-12.79-1.16-.29,0-.69-.06-.09.18c-1.69.31-6.47,1.21-12.29,2.6-12.89,3.09-29.11,8.15-33.24,14.73l0,.06,0,.07-18,41.18-.39.9.89.41c.6.27,14.58,6.66,27.74,8,.2,1,.41,2,.62,3.08.11.56.22,1.1.33,1.67l.11.59c.14.77.29,1.54.42,2.33.07.37.13.71.19,1.07.22,1.29.44,2.61.65,3.95.08.46.15.91.22,1.37s.09.61.14.9l.07.49.1.71.11.71c0,.38.11.8.17,1.22l0,.21c.07.47.13.94.18,1.42l.06.49.12,1c0,.12,0,.21,0,.3s0,.21,0,.32c.07.54.13,1.1.19,1.66l.07.69q.09.69.15,1.38V304l.09.81c0,.27.05.55.08.82l.06.7.06.7c.15,1.67.28,3.34.39,5l.15,2.78c0,.43,0,.85.06,1.27l0,.62,0,.8v.28c0,.2,0,.38,0,.57l0,.25c.14,1.48.27,3.11.4,5,0,.91.09,1.84.14,2.77,0,.43,0,.85.06,1.27l0,.62,0,1.24c0,.91,0,1.7,0,2.42v1h1l17.59-.27,11.52-.18,2.61,0,22.06-.34,18.93-.3,12.56-.19,1,0v-1c0-.31-.34-30.33,5.26-52.14,13.33-1.2,27.8-7.81,28.42-8.09l.89-.41-.4-.9-18-41.18,0-.07,0-.06c-6.19-9.88-39.44-16.24-45.2-17.27v-.25Z"/><path class="cls-12" d="M269.16,331l-22.06.34-2.61,0-29.11.45c0-.81,0-1.63,0-2.44,0-.43,0-.86,0-1.27,0-.64-.05-1.27-.09-1.89-.05-.93-.1-1.86-.14-2.79-.12-1.68-.25-3.35-.4-5,0-.26,0-.51-.06-.77s0-.75,0-1.1c0-.64-.05-1.26-.09-1.89l-.15-2.79c-.11-1.68-.24-3.34-.39-5l-.12-1.43c-.06-.54-.11-1.08-.17-1.62s-.1-1-.16-1.5c-.09-.81-.17-1.6-.27-2.39,0-.2,0-.39-.08-.59l-.18-1.47c-.06-.49-.12-1-.19-1.44s-.14-1-.2-1.44l-.21-1.42c-.07-.46-.13-.93-.21-1.39s-.14-.92-.22-1.37c-.21-1.35-.43-2.67-.65-4-.06-.37-.12-.72-.19-1.08-.17-1-.36-2-.54-2.94-.11-.57-.22-1.12-.33-1.67-.26-1.34-.52-2.61-.77-3.81C209.46,277.4,237.74,313.79,269.16,331Z"/><path class="cls-13" d="M271.52,183.65v30.28s-3.17,2.38-10.34,2.81c-.7,0-1.45.06-2.23.06a36.5,36.5,0,0,1-11-1.54,16.5,16.5,0,0,1-3.23-1.33V186.87Z"/><g class="cls-9"><path class="cls-10" d="M261.18,216.74c-.7,0-1.45.06-2.23.06a36.5,36.5,0,0,1-11-1.54,16.5,16.5,0,0,1-3.23-1.33V189l10.76,5.17S253.05,208.92,261.18,216.74Z"/></g><polyline class="cls-14" points="244.7 213.93 244.7 186.87 271.52 183.65 271.52 213.93"/><path class="cls-8" d="M225.79,154.69c.34,4.72-1.55,8.7-4.23,8.89s-5.12-3.47-5.46-8.19,1.56-8.69,4.23-8.88S225.45,150,225.79,154.69Z"/><g class="cls-9"><path class="cls-10" d="M217.91,153.2a2.18,2.18,0,0,1,2.66-.21,4.57,4.57,0,0,1,1.67,2.78.59.59,0,0,1-1.13.31,4.43,4.43,0,0,0-.81-1.81,1.12,1.12,0,0,0-1.57-.24c-.53.52-1.36-.3-.82-.83Z"/></g><path class="cls-8" d="M289.77,154.69c-.34,4.72,1.55,8.7,4.23,8.89s5.12-3.47,5.46-8.19-1.56-8.69-4.23-8.88S290.11,150,289.77,154.69Z"/><g class="cls-9"><path class="cls-10" d="M297.65,153.2A2.18,2.18,0,0,0,295,153a4.57,4.57,0,0,0-1.67,2.78.59.59,0,0,0,1.13.31,4.43,4.43,0,0,1,.81-1.81,1.12,1.12,0,0,1,1.57-.24c.53.52,1.36-.3.82-.83Z"/></g><path class="cls-13" d="M258.91,196.89a33.88,33.88,0,0,1-14.43-3.27c-.68-.32-1.29-.64-1.85-1a34,34,0,0,1-2.93-1.84c-8.34-5.84-14.18-15.5-16.9-27.95a82.8,82.8,0,0,1-1.68-18c0-1.55,0-3.07,0-4.51v-.14l0,0c.85-15.3,8-28.72,19.24-35.9.76-.49,1.53-1,2.3-1.36a30.52,30.52,0,0,1,14.08-3.85h.94a32.22,32.22,0,0,1,17.73,5.45c10,6.57,17.15,18.54,19.1,32l.05.5a48.16,48.16,0,0,1,.48,5.67c0,1.34,0,2.65,0,3.94L295,148.5a90.45,90.45,0,0,1-1.3,12.48c-2.71,14.86-9.55,26.14-19.26,31.76a20.51,20.51,0,0,1-2.55,1.37l-.21.1A31,31,0,0,1,260,196.87Z"/><path class="cls-6" d="M257.74,99.56a31.55,31.55,0,0,1,17.46,5.37c9.73,6.39,16.89,17.94,18.88,31.67l.05.48a49.31,49.31,0,0,1,.47,5.63c0,1.33,0,2.64,0,3.92l-.06,1.85a88.4,88.4,0,0,1-1.29,12.41c-2.8,15.34-9.73,26-19,31.42a20.31,20.31,0,0,1-2.51,1.35l-.2.09A30.48,30.48,0,0,1,260,196.37l-1.05,0a32.69,32.69,0,0,1-8.37-1.09,32.13,32.13,0,0,1-5.83-2.13c-.61-.29-1.22-.6-1.82-.94a34,34,0,0,1-2.89-1.82c-7.74-5.42-13.85-14.61-16.7-27.65a82.37,82.37,0,0,1-1.67-17.88c0-1.51,0-3,0-4.5,0,0,0,0,0,0,.82-15.44,8.25-28.73,19-35.63.74-.48,1.5-.93,2.27-1.34a30.17,30.17,0,0,1,13.86-3.79h.92m0-1h-.95a31.11,31.11,0,0,0-14.31,3.91c-.77.41-1.56.88-2.34,1.38-11.32,7.26-18.59,20.81-19.45,36.27a.9.9,0,0,0,0,.25c-.07,1.41-.08,3,0,4.53A83.53,83.53,0,0,0,222.31,163c2.75,12.58,8.66,22.35,17.1,28.26a35.13,35.13,0,0,0,3,1.87c.57.32,1.18.64,1.88,1a33,33,0,0,0,6,2.2,33.77,33.77,0,0,0,8.63,1.12l1.08,0a31.67,31.67,0,0,0,11.95-2.71l.11,0,.07,0a21.57,21.57,0,0,0,2.66-1.43c9.8-5.67,16.72-17.07,19.46-32.08a89.93,89.93,0,0,0,1.31-12.55l0-1.78v-.08c0-1.3,0-2.63,0-4a49.72,49.72,0,0,0-.48-5.75l-.05-.44c-2-13.66-9.2-25.76-19.32-32.41a32.78,32.78,0,0,0-18-5.53Z"/><path class="cls-14" d="M256.89,150.54s2.47,8.42.43,13.2a1.43,1.43,0,0,0,1.17,2,9,9,0,0,0,6.18-1.79"/><path class="cls-14" d="M256.4,173.52a12.65,12.65,0,0,0,13.78-3.23"/><path class="cls-14" d="M268.84,139.26s6.6-1.93,9.78.94"/><path class="cls-14" d="M239.71,139.26s6.6-1.93,9.78.94"/><g class="cls-9"><path class="cls-10" d="M260,196.37a32.7,32.7,0,0,1-9.42-1.07,32.13,32.13,0,0,1-5.83-2.13c-.61-.29-1.22-.6-1.82-.94a34,34,0,0,1-2.89-1.82c-7.74-5.42-13.85-14.61-16.7-27.65a82.37,82.37,0,0,1-1.67-17.88c0-1.51,0-3,0-4.5,0,0,0,0,0,0,.82-15.44,8.25-28.73,19-35.63l2.7,11.22s-13.26,51.92,1.31,72.35A18.69,18.69,0,0,0,260,196.37Z"/></g><path class="cls-15" d="M283.48,163.39a6.4,6.4,0,1,1-4.75-7.69A6.38,6.38,0,0,1,283.48,163.39Z"/><path class="cls-15" d="M245.13,164.39a6.4,6.4,0,1,1-4.75-7.69A6.4,6.4,0,0,1,245.13,164.39Z"/><path class="cls-16" d="M274.59,147.79c0,2.53-1.38,4.67-3.08,4.78s-3.07-1.85-3.07-4.38,1.38-4.66,3.08-4.77S274.59,145.27,274.59,147.79Z"/><path class="cls-16" d="M248.77,147.63c.14,2.53-1.12,4.73-2.81,4.93s-3.17-1.68-3.3-4.2,1.12-4.73,2.81-4.93S248.64,145.11,248.77,147.63Z"/><path class="cls-4" d="M213,148.39a.52.52,0,0,1-.35-.14.49.49,0,0,1-.15-.41,175.34,175.34,0,0,1,4.72-25.2c.54-2.08,1.14-4.19,1.84-6.42.12-.52.27-1,.43-1.6a55.76,55.76,0,0,1,7.31-15.84c3.09-4.77,6.62-8.15,10.48-10a33.87,33.87,0,0,1,17.81-4.65,52.06,52.06,0,0,1,9.75,1l.3.06.12,0c1.68.75,15.86,7.08,18.2,9.85,16.67,17.6,12.28,51.23,12.23,51.57a.48.48,0,0,1-.21.34.47.47,0,0,1-.28.09h-.12c-.19-.05-18.31-4.64-20.77-27.52-2.27,6.53-11.37,20.15-47.85,26.9l-13.39,2Z"/><path class="cls-6" d="M255.13,84.58a51.21,51.21,0,0,1,9.65,1l.29.06,0,0,.05,0c1.33.59,15.67,7,17.95,9.68,16.72,17.65,12.12,51.18,12.12,51.18s-19.8-4.72-20.64-30.64c0,0-.08,21.12-48.19,30l-13.37,2a174.32,174.32,0,0,1,4.71-25.12c.58-2.26,1.2-4.39,1.83-6.4.13-.54.27-1.07.43-1.61a55.35,55.35,0,0,1,7.24-15.69c3.22-5,6.69-8.12,10.29-9.89a33.24,33.24,0,0,1,17.6-4.6m0-1h0a34.47,34.47,0,0,0-18.08,4.72c-3.92,1.94-7.51,5.38-10.65,10.22a56.55,56.55,0,0,0-7.36,16c-.16.52-.3,1.06-.44,1.63-.69,2.23-1.29,4.33-1.83,6.42A176,176,0,0,0,212,147.78a1,1,0,0,0,.31.83,1,1,0,0,0,.69.28h.15l13.37-2c20.19-3.74,34.55-10,42.71-18.65a26.2,26.2,0,0,0,4.81-6.9c1.56,10.44,6.4,16.75,10.49,20.33A26.94,26.94,0,0,0,295,147.48a.85.85,0,0,0,.23,0,1,1,0,0,0,.56-.18,1,1,0,0,0,.43-.69c.19-1.38,4.47-34.18-12.37-52-2.41-2.8-15.65-8.76-18.29-9.93l-.05,0a1.44,1.44,0,0,0-.25-.08l-.13,0-.16,0a52.35,52.35,0,0,0-9.84-1Z"/><rect class="cls-4" x="163.08" y="292.45" width="191.22" height="112.93"/><path class="cls-6" d="M353.79,293V404.88H163.58V293H353.79m1-1H162.58V405.88H354.79V292Z"/><path class="cls-17" d="M100.93,405.14a.51.51,0,0,1-.5-.42c-2-11.51-7.18-41.62-7.48-42.62a.51.51,0,0,1,.48-.65h42.36a.49.49,0,0,1,.38.18.48.48,0,0,1,.11.41l-7.59,39.83,0,.1-.52,2.76a.5.5,0,0,1-.49.41Z"/><path class="cls-6" d="M135.79,362l-7.59,39.83h0l-.54,2.86H100.93s-7.17-41.71-7.5-42.69h42.36m0-1H93.43a1,1,0,0,0-.81.42,1,1,0,0,0-.14.9c.3,1.09,4.63,26,7.46,42.54a1,1,0,0,0,1,.83h26.72a1,1,0,0,0,1-.82l.51-2.72a.65.65,0,0,0,0-.13l7.59-39.83a1,1,0,0,0-1-1.19Zm0,2Z"/><path class="cls-4" d="M114.11,381.06a13,13,0,0,1-.54-9.21c-4.39.2-7.91,4.51-7.91,9.81s3.68,9.83,8.23,9.83l.36,0A14.52,14.52,0,0,0,114.11,381.06Z"/><path class="cls-4" d="M123.75,381.66c0-5.43-3.69-9.83-8.23-9.83l-.31,0a13,13,0,0,0,.53,9.21,14.47,14.47,0,0,1,.14,10.41C120.26,391.24,123.75,386.94,123.75,381.66Z"/><path class="cls-17" d="M93.43,362.45a.48.48,0,0,1-.44-.27.49.49,0,0,1,0-.51l4.09-6.06,4.7-7a.51.51,0,0,1,.42-.22H128a.51.51,0,0,1,.43.24l4.17,7,3.64,6.06a.52.52,0,0,1,0,.51.5.5,0,0,1-.43.25Z"/><path class="cls-6" d="M128,348.91l4.17,7,3.64,6.06H93.43l4.09-6.06,4.7-7H128m0-1H102.22a1,1,0,0,0-.83.44l-4.7,7-4.09,6.06a1,1,0,0,0-.06,1,1,1,0,0,0,.89.53h42.36a1,1,0,0,0,.85-1.52L133,355.37l-4.16-7a1,1,0,0,0-.86-.49Z"/><circle class="cls-18" cx="397.3" cy="59.04" r="42.72" transform="translate(276.2 442.01) rotate(-80.9)"/><line class="cls-18" x1="397.3" y1="16.32" x2="397.3" y2="23.75"/><line class="cls-18" x1="397.3" y1="93.6" x2="397.3" y2="101.03"/><line class="cls-18" x1="354.94" y1="58.67" x2="362.38" y2="58.67"/><line class="cls-18" x1="432.23" y1="58.67" x2="439.66" y2="58.67"/><line class="cls-18" x1="367.35" y1="28.72" x2="372.61" y2="33.98"/><line class="cls-18" x1="422" y1="83.37" x2="427.25" y2="88.63"/><line class="cls-18" x1="367.35" y1="88.63" x2="372.61" y2="83.37"/><line class="cls-18" x1="422" y1="33.98" x2="427.25" y2="28.72"/><path class="cls-4" d="M400.18,58.67a2.88,2.88,0,1,1-2.88-2.87A2.88,2.88,0,0,1,400.18,58.67Z"/><polyline class="cls-19" points="397.3 28.72 397.3 58.67 414.02 74.51"/><path class="cls-20" d="M128.19,401.78l-.54,2.86H100.93s-7.17-41.71-7.5-42.69l4.09-6.06,4.7-7a101.27,101.27,0,0,0,.7,13C104.58,376.61,110.11,398.78,128.19,401.78Z"/><path class="cls-5" d="M451.6,349.5s4.24-29.44,17.33-42.34"/><path class="cls-4" d="M465.87,310.58c.21-.11.42-1.25.5-1.46.46-1.32,1-2.62,1.49-3.92a84.93,84.93,0,0,1,5.64-11.54c2.54-4.26,5.65-8.68,10-11.27a14.17,14.17,0,0,1,7.77-1.73c4.17.31,7.18,3.85,5.06,7.82-1.76,3.31-5.23,5.45-8.09,7.72a138.09,138.09,0,0,1-14.06,9.57C471.44,307.44,468.68,309.06,465.87,310.58Z"/><path class="cls-5" d="M460.44,361.79s1.66-22.94,14.75-35.85"/><path class="cls-4" d="M471.47,330.11c.31-.17.65-1.84.77-2.16q1-2.7,2.24-5.29c2-4.18,4.47-8.67,8.21-11.54,2.36-1.81,9.17-3.69,10.52.51a3.18,3.18,0,0,1-.25,2.2c-1,2.48-3.34,4.2-5.38,5.85a82.46,82.46,0,0,1-7.11,5.06C477.54,326.64,474.54,328.45,471.47,330.11Z"/><path class="cls-5" d="M431.27,305s13.51,11.5,19.75,47.66"/><path class="cls-4" d="M435.26,309.55c-.28-.17-.56-1.21-.69-1.5-.62-1.33-1.27-2.65-1.92-4-2-4-4.17-8-6.52-11.88A60.1,60.1,0,0,0,417.77,281c-2-2-5.08-4.66-8.14-3.59a6.62,6.62,0,0,0-3.92,5c-.38,3.2,2.76,6.48,4.82,8.63a71.85,71.85,0,0,0,7.13,6.38,170,170,0,0,0,14.39,10.2C433.11,308.22,434.18,308.9,435.26,309.55Z"/><path class="cls-5" d="M445.41,350.27s-5.81-17,1.9-33.7"/><path class="cls-4" d="M446.16,319.6a59.11,59.11,0,0,1,.23-9.5c.47-4.82,1.35-10.71,4.85-14.36a7.67,7.67,0,0,1,6.46-2.35c8.53,1-6.76,20.26-8.85,22.91C448,317.41,447.08,318.52,446.16,319.6Z"/><path class="cls-5" d="M445.17,349.59s-11.38-20-28.74-26"/><path class="cls-4" d="M425.11,327.78c-.35,0-1.27-1.49-1.5-1.74q-1.94-2.15-4-4.13c-4.62-4.36-12.35-11.08-19.08-7.14a5.71,5.71,0,0,0-2,1.79c-2.44,3.85,3.49,5.84,6.12,6.79a69.44,69.44,0,0,0,8.64,2.38q5.83,1.27,11.77,2Z"/><rect class="cls-11" x="429.21" y="341.6" width="43.63" height="61.04"/><path class="cls-6" d="M472.33,342.1v60H429.71v-60h42.62m1-1H428.71v62h44.62v-62Z"/><path class="cls-21" d="M470.33,402.14H429.71v-60S435.45,397.36,470.33,402.14Z"/><path class="cls-11" d="M64,378.35h-.34a3.44,3.44,0,0,1-3-3.47V338.4h6.64V375A3.31,3.31,0,0,1,64,378.35Z"/><path class="cls-6" d="M66.85,338.9V375A2.82,2.82,0,0,1,64,377.85h-.29a2.93,2.93,0,0,1-2.53-3v-36h5.64m1-1H60.21v37a4,4,0,0,0,3.43,4H64A3.82,3.82,0,0,0,67.85,375V337.9Z"/><path class="cls-4" d="M61.21,339.4a.5.5,0,0,1-.5-.5v-.26a.49.49,0,0,1,.1-.3l1.88-2.5a1.68,1.68,0,0,1,2.68,0l1.88,2.5a.49.49,0,0,1,.1.3v.26a.5.5,0,0,1-.5.5Z"/><path class="cls-6" d="M64,335.67a1.17,1.17,0,0,1,.94.47l1.88,2.5v.26H61.21v-.26l1.88-2.5a1.17,1.17,0,0,1,.94-.47m0-1a2.16,2.16,0,0,0-1.74.87l-1.88,2.51a1,1,0,0,0-.2.59v.26a1,1,0,0,0,1,1h5.64a1,1,0,0,0,1-1v-.26a1,1,0,0,0-.2-.59l-1.88-2.51a2.16,2.16,0,0,0-1.74-.87Z"/><path class="cls-4" d="M55.81,352.28a.52.52,0,0,1-.21,0,.51.51,0,0,1-.29-.46v-8.53a.51.51,0,0,1,.5-.5.57.57,0,0,1,.3.1L57.7,344a.48.48,0,0,1,.2.4v5.92a.51.51,0,0,1-.16.37l-1.6,1.42A.46.46,0,0,1,55.81,352.28Z"/><path class="cls-6" d="M55.81,343.25l1.59,1.19v5.92l-1.59,1.42v-8.53m0-1a1,1,0,0,0-.45.11,1,1,0,0,0-.55.89v8.53a1,1,0,0,0,.59.91,1,1,0,0,0,.41.09,1,1,0,0,0,.67-.25l1.59-1.43a1,1,0,0,0,.33-.74v-5.92a1,1,0,0,0-.4-.81l-1.59-1.18a1,1,0,0,0-.6-.2Z"/><path class="cls-11" d="M53,370.66a3.32,3.32,0,0,1-3.32-3.32V337.9h6.64v29.44A3.32,3.32,0,0,1,53,370.66Z"/><path class="cls-6" d="M55.81,338.4v28.94a2.82,2.82,0,1,1-5.64,0V338.4h5.64m1-1H49.17v29.94a3.82,3.82,0,1,0,7.64,0V337.4Z"/><path class="cls-11" d="M49.67,338.9V334a3.32,3.32,0,0,1,6.64,0v4.87Z"/><path class="cls-6" d="M53,331.21A2.82,2.82,0,0,1,55.81,334v4.37H50.17V334A2.82,2.82,0,0,1,53,331.21m0-1A3.82,3.82,0,0,0,49.17,334v5.37h7.64V334A3.82,3.82,0,0,0,53,330.21Z"/><path class="cls-11" d="M44.18,378.35A3.32,3.32,0,0,1,40.86,375V341.72a3.32,3.32,0,1,1,6.64,0V375A3.32,3.32,0,0,1,44.18,378.35Z"/><path class="cls-6" d="M44.18,338.9A2.82,2.82,0,0,1,47,341.72V375a2.82,2.82,0,1,1-5.64,0V341.72a2.82,2.82,0,0,1,2.82-2.82m0-1a3.83,3.83,0,0,0-3.82,3.82V375A3.82,3.82,0,1,0,48,375V341.72a3.83,3.83,0,0,0-3.82-3.82Z"/><polygon class="cls-16" points="72.03 351.79 70.44 352.97 70.44 358.89 72.03 360.32 72.03 351.79"/><path class="cls-11" d="M74.86,379.2a3.32,3.32,0,0,1-3.32-3.32V346.43h6.64v29.45A3.32,3.32,0,0,1,74.86,379.2Z"/><path class="cls-6" d="M77.68,346.93v28.95a2.83,2.83,0,0,1-2.82,2.82h0A2.82,2.82,0,0,1,72,375.88V346.93h5.64m1-1H71v29.95a3.82,3.82,0,0,0,7.64,0V345.93Z"/><path class="cls-4" d="M72,347.43a.5.5,0,0,1-.5-.5v-4.37a3.32,3.32,0,0,1,6.64,0v4.37a.5.5,0,0,1-.5.5Z"/><path class="cls-6" d="M74.86,339.74a2.83,2.83,0,0,1,2.82,2.82v4.37H72v-4.37a2.82,2.82,0,0,1,2.82-2.82h0m0-1A3.83,3.83,0,0,0,71,342.56v4.37a1,1,0,0,0,1,1h5.64a1,1,0,0,0,1-1v-4.37a3.83,3.83,0,0,0-3.82-3.82Z"/><path class="cls-4" d="M48.15,405.38A11.25,11.25,0,0,1,36.9,394.14V355.43a.5.5,0,0,1,.5-.5H79.71a.5.5,0,0,1,.5.5v38.71A11.25,11.25,0,0,1,69,405.38Z"/><path class="cls-6" d="M79.71,355.43v38.71A10.75,10.75,0,0,1,69,404.88H48.15A10.74,10.74,0,0,1,37.4,394.14V355.43H79.71m0-1H37.4a1,1,0,0,0-1,1v38.71a11.76,11.76,0,0,0,11.75,11.74H69a11.76,11.76,0,0,0,11.74-11.74V355.43a1,1,0,0,0-1-1Z"/><path class="cls-22" d="M76.69,401.6A10.7,10.7,0,0,1,69,404.88H48.15A10.74,10.74,0,0,1,37.4,394.14V355.43S50.12,392,76.69,401.6Z"/><path class="cls-17" d="M36,425.54a12.13,12.13,0,1,1,0-24.26H498.13a12.13,12.13,0,0,1,0,24.26Z"/><path class="cls-6" d="M498.13,401.78a11.63,11.63,0,0,1,0,23.26H36a11.63,11.63,0,1,1,0-23.26H498.13m0-1H36A12.63,12.63,0,1,0,36,426H498.13a12.63,12.63,0,0,0,0-25.26Z"/><path class="cls-4" d="M186.85,102.13a.52.52,0,0,1-.29-.09l-23.36-17H91.14A17.66,17.66,0,0,1,73.5,67.45v-37A17.66,17.66,0,0,1,91.14,12.81h97a17.66,17.66,0,0,1,17.64,17.64v37A17.66,17.66,0,0,1,188.1,85.09h-6.16l5.39,16.39a.51.51,0,0,1-.18.56A.53.53,0,0,1,186.85,102.13Z"/><path class="cls-6" d="M188.1,13.31a17.14,17.14,0,0,1,17.14,17.14v37A17.14,17.14,0,0,1,188.1,84.59h-6.85l5.6,17-23.49-17H91.14A17.14,17.14,0,0,1,74,67.45v-37A17.14,17.14,0,0,1,91.14,13.31h97m0-1h-97A18.16,18.16,0,0,0,73,30.45v37A18.16,18.16,0,0,0,91.14,85.59H163l23.24,16.85a1,1,0,0,0,1.17,0,1,1,0,0,0,.36-1.12l-5.16-15.73h5.46a18.16,18.16,0,0,0,18.14-18.14v-37A18.16,18.16,0,0,0,188.1,12.31Z"/><path class="cls-18" d="M195.36,10h-97A17.14,17.14,0,0,0,81.26,27.1v37A17.14,17.14,0,0,0,98.4,81.24h72.21l23.5,17-5.6-17h6.85A17.14,17.14,0,0,0,212.5,64.1v-37A17.14,17.14,0,0,0,195.36,10Z"/><line class="cls-19" x1="92.5" y1="51.38" x2="187.97" y2="51.38"/><line class="cls-19" x1="92.5" y1="24.93" x2="141.72" y2="24.93"/><line class="cls-19" x1="92.61" y1="38.54" x2="152.6" y2="38.54"/><line class="cls-19" x1="92.79" y1="44.98" x2="172.29" y2="44.98"/><line class="cls-19" x1="92.91" y1="57.99" x2="187.22" y2="57.99"/><line class="cls-19" x1="92.92" y1="64.61" x2="187.99" y2="64.61"/><line class="cls-19" x1="92.97" y1="31.54" x2="187.72" y2="31.54"/><polyline class="cls-14" points="212.5 147.97 213.03 147.89 226.4 145.89"/></g></g></svg>