<svg xmlns="http://www.w3.org/2000/svg" viewBox="0 0 182.4 395.59"><defs><style>.cls-1{fill:#8c8cd9;opacity:0.1;}.cls-2{fill:#ffaf82;}.cls-3{fill:#f88968;}.cls-4{fill:#66c;}.cls-5{fill:#050705;}.cls-6{fill:#5353c6;}.cls-7{fill:#fff;}.cls-8{fill:#2c2c2c;}.cls-9{fill:#e2e2e2;}.cls-10{fill:#32324c;}</style></defs><title>LogoArtboard 2</title><g id="OBJECTS"><ellipse class="cls-1" cx="88" cy="373.01" rx="60.97" ry="9.25"/><path class="cls-1" d="M172.22,264.62c-5.16,76-101,106.8-148.39,47.12-9.66-12.18-12-41.58-9.47-57.08,10.09-62.49,42.14-68.87,18.21-108.39S6.43,35,72.48,35.55,96,141.67,141.44,171.2C162.25,184.71,174.9,225,172.22,264.62Z"/><path class="cls-1" d="M147.18,154.12a10.09,10.09,0,0,1-11.11-3.2c-4.29-5.21-11.15-15.72-9.11-28,2.92-17.48,25.07-3.52,26.81,16.13C154.64,148.91,151,152.74,147.18,154.12Z"/><path class="cls-1" d="M123.59,108.14a5.26,5.26,0,0,1-3.56-4.86c-.11-3.52.42-10,5.17-14.44,6.79-6.28,11.47,6.55,5.91,15.21C128.33,108.38,125.61,108.8,123.59,108.14Z"/><path class="cls-1" d="M14.78,193.57a5.27,5.27,0,0,1-4.39-4.14c-.74-3.44-1.4-10,2.47-15.14,5.54-7.41,12.47,4.36,8.57,13.89C19.48,192.94,16.89,193.85,14.78,193.57Z"/><path class="cls-2" d="M137.76,180.36a34.71,34.71,0,0,1,6.4,2c2.86,1.31,6.29,3,8.05,3.82,2.1,1,.27,2.88-2.72,1.64s-3.68-1.5-3.68-1.5,10,7.51,11.73,10.42c1.55,2.65-4.19-1.22-9.11-4.15,0,0,8.43,8.93,7.91,11-.68,2.65-10.86-8.2-10.86-8.2s6.31,9.12,5.12,9.72-8.93-7.87-8.93-7.87,3.78,6.64,2.84,6.76c-1.85.23-12.59-12-13-19.43C131.55,184.56,136,180.35,137.76,180.36Z"/><path class="cls-3" d="M147.52,190.13s-3.38,4.81-8.78,5.63C138.74,195.76,144,197.43,147.52,190.13Z"/><path class="cls-3" d="M141.55,190.18s-6.37-2.59-3.93-8.15C137.62,182,132.87,187.4,141.55,190.18Z"/><path class="cls-4" d="M115.57,139.07c-4.85-41.73-14.29-58.44-14.29-58.44-8.55,35-1.88,54,1,63.06s29.28,42,29.28,42a14,14,0,0,1,7.39-5s-8.37-14.75-11.33-20.28S115.57,139.07,115.57,139.07Z"/><path class="cls-5" d="M113.58,276.59l-6.7,81H95.07c-2.73-31.55-7.14-59.19-2.17-81-5-24.53-8.73-80.21-8.73-80.21,9-4.12,23.46-7.89,23.46-7.89C112.42,215.72,113.58,276.59,113.58,276.59Z"/><path class="cls-4" d="M134.3,376.62H95.68a3.57,3.57,0,0,1-3.54-3.1,3.12,3.12,0,0,1,0-.75l1.57-20.29a22.63,22.63,0,0,1,3.86-1.27,3.9,3.9,0,0,0,2.86-2.6,2.45,2.45,0,0,0,.08-.29c.89-3.9,6.52-5.15,7.56-1.33.13.49.25,1,.35,1.43,0,.12,0,.23.07.34.17.82.29,1.58.37,2.24a.06.06,0,0,1,0,0,21.44,21.44,0,0,1,.19,2.76l1.48,1.91.72.93c.5.66,1,1.31,1.48,1.92l.67.85c.54.67,1.07,1.31,1.6,1.9.24.27.47.53.72.78,2,2.1,4,3.53,6.37,3.86,4.19.57,11,1,14.33,7.18a2.2,2.2,0,0,1,.17.39A2.38,2.38,0,0,1,134.3,376.62Z"/><path class="cls-6" d="M134.3,376.62H95.68a3.57,3.57,0,0,1-3.54-3.1h44.43A2.38,2.38,0,0,1,134.3,376.62Z"/><path class="cls-7" d="M111.23,356.64a6.75,6.75,0,0,1-3.2,2.19c-.31.13-.65.25-1,.37l-.34-1c.37-.12.7-.24,1-.36,2.11-.85,2.69-1.69,2.84-2.12Z"/><circle class="cls-7" cx="106.84" cy="358.7" r="1.2"/><path class="cls-7" d="M113.38,359.41a7.48,7.48,0,0,1-2.64,1.67c-.37.16-.77.3-1.22.45l-.34-1c.42-.14.8-.27,1.13-.41a6,6,0,0,0,2.4-1.55Z"/><path class="cls-7" d="M110.74,361a1.2,1.2,0,1,1-1.19-1.2A1.19,1.19,0,0,1,110.74,361Z"/><path class="cls-7" d="M115.7,362.09a7.58,7.58,0,0,1-2.56,1.6c-.38.16-.79.31-1.25.46l-.33-1c.43-.14.8-.28,1.14-.42a6.85,6.85,0,0,0,2.28-1.41C115.22,361.58,115.45,361.84,115.7,362.09Z"/><path class="cls-7" d="M113.14,363.65a1.2,1.2,0,1,1-1.2-1.2A1.19,1.19,0,0,1,113.14,363.65Z"/><path class="cls-7" d="M108.83,351a26.47,26.47,0,0,0-3.44.19l0-1.93a8.8,8.8,0,0,1,3-.5C108.63,349.58,108.75,350.34,108.83,351Z"/><path class="cls-8" d="M77.81,196.38s-.3,32.14-4.86,80.21c-3,26.2-6.28,59.07-10,81H51.17l-1.67-81s-2.71-49.81,3.17-84.13Z"/><path class="cls-4" d="M73.35,373.92c-.34,6.8-21.61,4.46-25,2.42-1.31-.79-1.86-2.31-2-4.15-.17-2.94.8-6.69,1.63-9.64,1.36-4.79,1.18-4.7,2.12-8,0,0-.24-5.33,6.73-7.36S66.38,358.44,67.57,361c1.09,2.34,5.32,5.54,5.76,11.29A12.71,12.71,0,0,1,73.35,373.92Z"/><path class="cls-7" d="M53.06,358.88l-.55-.86c.26-.17,6.41-4.11,11.76-1.76l-.41.93C59,355.06,53.12,358.84,53.06,358.88Z"/><path class="cls-7" d="M53.67,364.8l-.56-.86c.26-.17,6.41-4.11,11.77-1.76l-.41.93C59.61,361,53.73,364.76,53.67,364.8Z"/><path class="cls-7" d="M53.37,361.84l-.56-.86c.26-.17,6.41-4.11,11.76-1.76l-.41.93C59.31,358,53.43,361.8,53.37,361.84Z"/><path class="cls-7" d="M53.87,358.61a1.15,1.15,0,1,1-1.15-1.15A1.15,1.15,0,0,1,53.87,358.61Z"/><path class="cls-7" d="M53.93,361.41a1.15,1.15,0,1,1-1.14-1.14A1.14,1.14,0,0,1,53.93,361.41Z"/><path class="cls-7" d="M54.54,364.22a1.15,1.15,0,1,1-1.15-1.15A1.15,1.15,0,0,1,54.54,364.22Z"/><path class="cls-7" d="M65.82,362.56a1.15,1.15,0,1,1-2.3,0,1.15,1.15,0,1,1,2.3,0Z"/><path class="cls-7" d="M65.52,359.5a1.15,1.15,0,1,1-1.15-1.15A1.16,1.16,0,0,1,65.52,359.5Z"/><path class="cls-7" d="M65.21,356.44a1.15,1.15,0,1,1-1.14-1.15A1.15,1.15,0,0,1,65.21,356.44Z"/><path class="cls-6" d="M73.35,373.92c-.34,6.8-21.61,4.46-25,2.42-1.31-.79-1.86-2.31-2-4.15a25.08,25.08,0,0,0,12.05,3c7.22.13,12.43-1.33,14.91-2.88A12.71,12.71,0,0,1,73.35,373.92Z"/><path class="cls-7" d="M59.86,349.31a11.38,11.38,0,0,0-6,1.19l.31,2.15a23.64,23.64,0,0,1,6.41-1A5.06,5.06,0,0,0,59.86,349.31Z"/><path class="cls-8" d="M54.34,184s-4,14.16-4,26.78c0,0,19.6,8.58,44.54-.9a20.1,20.1,0,0,0,11.72-25.52l-.13-.36S74.62,182.73,54.34,184Z"/><path class="cls-4" d="M113.58,192.21a102.05,102.05,0,0,1-12.76,5c-1.17.37-2.36.72-3.56,1A78.76,78.76,0,0,1,77.89,201a58.59,58.59,0,0,1-32.08-8.58l6.91-41.11L41.28,84.49,58.4,78.62l.92-.31L61,77.73l.71-.25L63.17,77l3-1,18.11,2.43,1.09.14,1.86.25,1,.14,13,1.73Z"/><path class="cls-7" d="M97.26,198.22A78.76,78.76,0,0,1,77.89,201q.44-2.76.71-5.72c.1-1,.18-2,.25-3,.13-2,.23-4,.27-6.08,0-1,0-2,0-3,0-2,0-4-.08-6,0-1-.06-2-.11-3-.08-2-.2-4-.34-6-.07-1-.14-2-.22-3-.16-2-.35-4-.55-6-.1-1-.21-2-.32-3-.22-2-.46-4-.72-6-.13-1-.26-2-.4-3-.27-2-.56-4-.87-6-.15-1-.3-2-.46-3-.32-2-.66-4-1-6-.17-1-.35-2-.52-3q-.56-3-1.12-6c-.19-1-.38-2-.58-3q-.6-3.06-1.22-6l-.63-3c-.44-2.06-.88-4.08-1.33-6-.22-1-.45-2-.67-3q-.72-3.13-1.43-6c-.24-1-.48-2-.72-3q-.8-3.23-1.53-6.08c-.26-1-.52-2-.77-3-.69-2.64-1.32-5-1.86-6.88L63.17,77l3-1,18.11,2.43,1.09.14q.49,2.56,1,5.14c.18,1,.35,1.94.52,2.92.34,2,.68,3.91,1,5.86.17,1,.33,1.95.48,2.93.32,2,.62,3.91.92,5.86.15,1,.29,2,.43,2.93q.43,2.94.84,5.86c.14,1,.27,2,.4,2.94.27,2,.52,3.92.77,5.87.12,1,.24,2,.37,2.94q.36,3,.69,5.87l.33,3q.33,3,.63,5.88c.11,1,.21,2,.3,3,.2,2,.39,4,.57,5.89q.14,1.5.27,3c.18,2,.34,4,.5,5.9.08,1,.16,2,.23,3q.24,3,.43,5.91c.07,1,.14,2,.2,3,.14,2,.25,4,.36,5.93.06,1,.11,2,.16,3,.11,2.07.2,4.06.27,5.95,0,1,.08,2,.11,3,.07,2.15.12,4.15.15,6,0,1.06,0,2.07,0,3C97.34,195,97.31,196.78,97.26,198.22Z"/><path class="cls-9" d="M86.9,86.57a124.08,124.08,0,0,1-15.77.92q-3.27,0-6.78-.14c-.26-1-.52-2-.77-3a137.79,137.79,0,0,0,22.8-.71C86.56,84.62,86.73,85.59,86.9,86.57Z"/><path class="cls-9" d="M88.38,95.36a124.18,124.18,0,0,1-17.44,1.1c-1.41,0-2.86,0-4.34,0-.24-1-.48-2-.72-3a132.34,132.34,0,0,0,22-1C88.07,93.41,88.23,94.38,88.38,95.36Z"/><path class="cls-9" d="M89.73,104.15a124.6,124.6,0,0,1-19,1.29h-2c-.22-1-.45-2-.67-3a127.92,127.92,0,0,0,21.27-1.24C89.45,102.2,89.59,103.17,89.73,104.15Z"/><path class="cls-9" d="M91,113a125.14,125.14,0,0,1-20.31,1.48l-.63-3A122.92,122.92,0,0,0,90.57,110C90.71,111,90.84,112,91,113Z"/><path class="cls-9" d="M92.11,121.76a122.76,122.76,0,0,1-19.65,1.66c-.19-1-.38-2-.58-3a121.18,121.18,0,0,0,19.86-1.64C91.86,119.8,92,120.78,92.11,121.76Z"/><path class="cls-9" d="M93.13,130.59a121.32,121.32,0,0,1-19,1.8c-.17-1-.35-2-.52-3a117,117,0,0,0,19.22-1.8Z"/><path class="cls-9" d="M94.06,139.43a118.75,118.75,0,0,1-18.5,1.92c-.15-1-.3-2-.46-3a115.1,115.1,0,0,0,18.66-1.92C93.87,137.46,94,138.45,94.06,139.43Z"/><path class="cls-9" d="M94.9,148.29a119.07,119.07,0,0,1-18.07,2c-.13-1-.26-2-.4-3a114.62,114.62,0,0,0,18.2-2Q94.77,146.82,94.9,148.29Z"/><path class="cls-9" d="M95.63,157.17a118.53,118.53,0,0,1-17.76,2.1c-.1-1-.21-2-.32-3a114.55,114.55,0,0,0,17.85-2.13C95.48,155.19,95.56,156.19,95.63,157.17Z"/><path class="cls-9" d="M96.26,166.07a117.61,117.61,0,0,1-17.62,2.17c-.07-1-.14-2-.22-3a115.16,115.16,0,0,0,17.64-2.21C96.13,164.09,96.2,165.09,96.26,166.07Z"/><path class="cls-9" d="M96.78,175a120.56,120.56,0,0,1-17.69,2.24c0-1-.06-2-.11-3A114.54,114.54,0,0,0,96.62,172C96.68,173,96.73,174,96.78,175Z"/><path class="cls-9" d="M97.16,184a123.15,123.15,0,0,1-18,2.3c0-1,0-2,0-3A117,117,0,0,0,97.05,181C97.09,182,97.13,183,97.16,184Z"/><path class="cls-9" d="M97.33,193a125.62,125.62,0,0,1-18.73,2.36c.1-1,.18-2,.25-3a121.09,121.09,0,0,0,18.46-2.4C97.32,191,97.33,192,97.33,193Z"/><path class="cls-6" d="M103.66,27.22s4.59,3,2.94,11.25-4.82,9.09-4.82,9.09S97,29.36,103.66,27.22Z"/><path class="cls-2" d="M82.55,65.63,82,76l-.27,4.76C75.71,85.22,66,79.12,66,79.12l-1-15.4c2.77-1.87,9.91-.32,14.2.87C81.16,65.15,82.55,65.63,82.55,65.63Z"/><path class="cls-3" d="M82.55,65.63,82,76c-7-1.63-12.92-11.37-12.92-11.37l10.09-.07C81.16,65.15,82.55,65.63,82.55,65.63Z"/><path class="cls-6" d="M102.73,31.41S114,26.19,110.66,17,94,12,81.89,12.47c-19.43.74-25.51,10.84-25,21.36S57.25,58.46,62,63.72s8-2.17,10.49-8.75S90.2,28.24,102.73,31.41Z"/><path class="cls-2" d="M103.75,40.36c0,.35,0,.72,0,1.08a162.24,162.24,0,0,1-2.43,20.93,12.34,12.34,0,0,1-14.6,10c-8.21-1.66-18.33-4.17-22.95-7.21-1.4-.92-2.29-1.89-2.47-2.9a69.42,69.42,0,0,1-.75-9.06C60.2,42.61,61,29.4,61,29.4c9.87-12.26,37.36-7.48,41.55,1.49C103.47,32.94,103.81,36.34,103.75,40.36Z"/><path class="cls-10" d="M87.45,46.28c0,1.37-.62,2.49-1.37,2.49s-1.37-1.12-1.37-2.49.61-2.5,1.37-2.5S87.45,44.9,87.45,46.28Z"/><path class="cls-10" d="M101.47,46.28c0,1.37-.61,2.49-1.37,2.49s-1.37-1.12-1.37-2.49.62-2.5,1.37-2.5S101.47,44.9,101.47,46.28Z"/><path class="cls-6" d="M60.48,43.5s4.39-2.86,8.09,2.25h2.87s-.16-5.91,1.24-9.12,6.9-3.12,7.73-6.91c0,0,13,5.18,22.32,1.69s-18.63-19-32.11-11.47S58.39,33.44,60.48,43.5Z"/><path class="cls-10" d="M80.14,42.82A6.94,6.94,0,0,1,84,39.43a6.47,6.47,0,0,1,4.85.44.83.83,0,0,1,.38,1h0a.84.84,0,0,1-1.14.47C86.66,40.71,83.53,39.86,80.14,42.82Z"/><path class="cls-10" d="M103.75,40.36c0,.35,0,.72,0,1.08a6.74,6.74,0,0,0-5.88-.07.85.85,0,0,1-.35.08.85.85,0,0,1-.42-1.58,6.46,6.46,0,0,1,4.86-.43A5,5,0,0,1,103.75,40.36Z"/><path class="cls-6" d="M63.74,65.17c-1.4-.92-2.29-1.89-2.47-2.9a69.42,69.42,0,0,1-.75-9.06l7.26,5S67.88,63.36,63.74,65.17Z"/><path class="cls-2" d="M68.57,45.75s-4.41-5.34-8.09-2.25c-4.07,3.41-.95,15,7.3,14.7Z"/><path class="cls-3" d="M68,55.69a.73.73,0,0,1-.72-.64c-.67-5.84-4.14-6.74-4.28-6.78a.73.73,0,0,1,.32-1.42c.19,0,4.61,1.11,5.41,8a.74.74,0,0,1-.64.81Z"/><path class="cls-3" d="M63.35,52a.7.7,0,0,1-.49-.19.74.74,0,0,1-.06-1,4.16,4.16,0,0,1,3.88-1.12.73.73,0,1,1-.31,1.42,2.64,2.64,0,0,0-2.48.67A.73.73,0,0,1,63.35,52Z"/><path class="cls-3" d="M94.25,60.94a13,13,0,0,1-10.09-4.38.73.73,0,0,1,.07-1,.74.74,0,0,1,1,.07c4.75,5.46,12.2,3.52,12.27,3.5a.73.73,0,0,1,.89.51.72.72,0,0,1-.5.89A14.87,14.87,0,0,1,94.25,60.94Z"/><path class="cls-3" d="M91.15,64.45a7.21,7.21,0,0,1-5.66-2.53.73.73,0,0,1,.16-1,.72.72,0,0,1,1,.15,6,6,0,0,0,5.79,1.84.73.73,0,1,1,.24,1.43A9.41,9.41,0,0,1,91.15,64.45Z"/><path class="cls-3" d="M94.05,54.29a.75.75,0,0,1-.58-.28.73.73,0,0,1,.14-1l1.94-1.48-1.68-.44a.73.73,0,0,1-.54-.58l-.74-4.63A.73.73,0,0,1,94,45.63l.66,4.16,2.67.69a.72.72,0,0,1,.53.56.74.74,0,0,1-.27.72l-3.13,2.38A.71.71,0,0,1,94.05,54.29Z"/><path class="cls-2" d="M53.65,196.23s3.23,1,4.2,2.92c0,0,0,11.94-6,17.15,0,0-3-7.18-6-14.07Z"/><path class="cls-4" d="M41.28,84.49S29.26,122,28.2,141.35c0,0,0,36.12,17.62,60.88l7.83-6s-9.87-35.93-9.87-49.94c0,0,10-26,11.64-36.28C55.42,110,48.7,84.49,41.28,84.49Z"/></g></svg>